*******************************************************************************
                              Purification (2012)
*******************************************************************************

-------------------------------------------------------------------------------
                              General Information
-------------------------------------------------------------------------------
Type.................: Movie



Video Format.........: AVI
Video Bitrate........: 2177
Resolution...........: 720 x 404
Color................: 8 bit
FPS..................: 29.970
Source...............: DVD 16x9
Original Format......: NTSC
Genre................: Horror
IMDb Rating..........: 4
Movie Information....: http://www.imdb.com/title/tt2275917

-------------------------------------------------------------------------------
                               Post Information
-------------------------------------------------------------------------------
Posted by............: RadioResearch
Posted on............: 2/2/2013

-------------------------------------------------------------------------------
                                 Release Notes
-------------------------------------------------------------------------------
Bret Fitzpatrick (Joe Ciminera), a wealthy real estate investor located in New 
York, is caught between reality and the supernatural. There he crosses paths 
with people who are in a stationary place for the terrible things they have done 
in their lifetime. As Bret begins to wake up to the dark forces from his 
devastating past, he confronts members of the underworld and has 24 hours to 
redeem himself.

Enjoy!

RadioResearch

General
Complete name                            : G:AVIPurification 
(2012)PURIFICATION_Title1.avi
Format                                   : AVI
Format/Info                              : Audio Video Interleave
Format profile                           : OpenDML
File size                                : 1.28 GiB
Duration                                 : 1h 23mn
Overall bit rate                         : 2 177 Kbps
Movie name                               : PURIFICATION
Director                                 : Joe_Ciminera
Genre                                    : Thriller
Writing application                      : MEncoder 5.0
Writing library                          : [= DigiArty videodll! =]

Video
ID                                       : 0
Format                                   : MPEG-4 Visual
Format profile                           : Simple@L1
Format settings, BVOP                    : No
Format settings, QPel                    : No
Format settings, GMC                     : No warppoints
Format settings, Matrix                  : Default (H.263)
Codec ID                                 : DX50
Codec ID/Hint                            : DivX 5
Duration                                 : 1h 23mn
Bit rate                                 : 1 978 Kbps
Width                                    : 720 pixels
Height                                   : 404 pixels
Display aspect ratio                     : 16:9
Frame rate                               : 29.970 fps
Color space                              : YUV
Chroma subsampling                       : 4:2:0
Bit depth                                : 8 bits
Scan type                                : Progressive
Compression mode                         : Lossy
Bits/(Pixel*Frame)                       : 0.227
Stream size                              : 1.16 GiB (91%)
Writing library                          : Lavc54.71.100

Audio
ID                                       : 1
Format                                   : AC-3
Format/Info                              : Audio Coding 3
Mode extension                           : CM (complete main)
Format settings, Endianness              : Big
Codec ID                                 : 2000
Duration                                 : 1h 23mn
Bit rate mode                            : Constant
Bit rate                                 : 192 Kbps
Channel(s)                               : 2 channels
Channel positions                        : Front: L R
Sampling rate                            : 48.0 KHz
Bit depth                                : 16 bits
Compression mode                         : Lossy
Stream size                              : 115 MiB (9%)
Alignment                                : Split accross interleaves
Interleave, duration                     : 500 ms (14.98 video frames)
Interleave, preload duration             : 500 ms




-------------------------------------------------------------------------------
Generated with Cool NFO Creator - http://fly.to/coolbeans
-------------------------------------------------------------------------------
